<svg viewBox="60 370 910 290" xmlns="http://www.w3.org/2000/svg" aria-label="WallRun logo" role="img">
  <defs>
    <linearGradient id="wallrun-flow" x1="0%" y1="0%" x2="200%" y2="0%">
      <stop offset="0%"   stop-color="#7C3AED"/>
      <stop offset="25%"  stop-color="#A855F7"/>
      <stop offset="50%"  stop-color="#22D3EE"/>
      <stop offset="75%"  stop-color="#A855F7"/>
      <stop offset="100%" stop-color="#7C3AED"/>
      <animate attributeName="x1" from="0%"   to="100%" dur="3s" repeatCount="indefinite"/>
      <animate attributeName="x2" from="200%" to="300%" dur="3s" repeatCount="indefinite"/>
    </linearGradient>
  </defs>

  <g fill="url(#wallrun-flow)">
    <path d="M 247.79 396.50 C 269.19 396.37 290.58 396.43 311.97 396.40 C 310.66 416.71 308.06 436.90 306.11 457.15 C 305.06 464.82 304.77 472.58 303.55 480.23 C 299.22 480.26 294.88 480.48 290.59 479.71 C 292.89 456.27 295.55 432.85 297.59 409.38 C 285.14 409.31 272.69 409.42 260.23 409.37 C 258.48 434.17 256.50 458.95 254.55 483.73 C 250.18 483.65 245.81 483.65 241.45 483.64 C 243.22 459.76 245.15 435.89 246.79 412.00 C 247.42 406.85 247.62 401.67 247.79 396.50 Z"/>
    <path d="M 382.35 396.45 C 404.82 396.26 427.30 396.36 449.77 396.27 C 448.12 415.91 446.43 435.54 445.07 455.20 C 444.12 465.40 443.81 475.66 442.51 485.82 C 467.49 456.01 492.33 426.10 517.41 396.37 C 535.78 396.30 554.16 396.26 572.54 396.32 C 572.99 397.57 573.41 398.83 573.80 400.11 C 571.42 403.14 569.07 406.19 566.92 409.37 C 552.73 409.48 538.55 409.38 524.36 409.51 C 497.15 441.72 470.26 474.22 443.33 506.66 C 437.98 506.79 432.63 506.74 427.28 506.70 C 430.20 474.32 432.49 441.88 435.45 409.50 C 420.06 409.28 404.67 409.44 389.28 409.50 C 363.56 440.04 337.93 470.66 312.15 501.17 C 310.45 503.00 309.02 505.14 307.02 506.66 C 253.67 506.81 200.32 506.68 146.96 506.74 C 129.51 506.57 112.05 507.01 94.61 506.55 C 94.62 502.50 94.68 498.45 94.65 494.40 C 96.08 494.24 97.48 493.89 98.92 493.81 C 166.13 493.59 233.34 493.93 300.55 493.58 C 312.91 479.24 324.90 464.60 337.13 450.16 C 352.27 432.31 367.44 414.49 382.35 396.45 Z"/>
    <path d="M 593.82 396.35 C 660.23 396.21 726.64 396.36 793.05 396.23 C 804.92 396.18 816.52 401.83 823.79 411.22 C 834.65 423.88 834.08 444.60 822.79 456.79 C 808.90 474.64 795.94 493.18 782.02 511.01 C 779.51 514.74 776.51 518.14 772.99 520.94 C 768.43 524.43 762.66 525.91 757.07 526.67 C 747.97 526.77 738.86 526.82 729.76 526.75 C 764.30 557.30 799.76 586.82 833.98 617.75 C 816.32 618.27 798.67 617.80 781.02 617.89 C 762.34 618.13 743.66 617.74 724.98 618.06 C 722.58 618.18 720.96 616.06 719.18 614.79 C 679.06 580.53 638.64 546.62 598.48 512.42 C 604.99 512.20 611.51 512.33 618.03 512.26 C 619.62 512.00 620.86 513.05 622.00 514.01 C 638.45 528.23 655.11 542.20 671.71 556.24 C 690.19 572.84 709.93 587.98 728.51 604.47 C 751.74 604.39 774.97 604.64 798.19 604.33 C 774.79 583.87 751.01 563.85 727.63 543.36 C 720.26 537.20 713.16 530.73 705.70 524.69 C 708.11 520.57 711.23 516.92 714.25 513.25 C 725.81 512.98 737.42 512.97 749.01 512.95 C 755.40 513.28 762.90 512.77 767.26 507.40 C 782.84 486.34 798.79 465.57 814.36 444.50 C 817.42 440.75 818.66 435.72 817.86 430.96 C 816.40 418.17 803.46 408.81 790.96 409.40 C 727.61 409.48 664.26 409.30 600.90 409.56 C 581.46 434.35 561.70 458.89 542.13 483.57 C 536.34 483.75 530.55 483.70 524.77 483.60 C 547.61 454.38 570.69 425.34 593.82 396.35 Z"/>
    <path d="M 743.90 449.64 C 748.92 448.78 754.03 449.25 759.11 449.10 C 759.57 450.02 760.04 450.95 760.52 451.89 C 755.15 458.47 750.13 465.35 745.63 472.56 C 741.27 480.03 732.33 483.62 724.02 484.05 C 696.07 484.13 668.12 483.91 640.18 484.12 C 633.17 491.48 626.34 499.03 618.97 506.04 C 617.97 507.11 616.32 506.66 615.04 506.85 C 583.34 506.86 551.64 506.80 519.95 506.85 C 518.51 506.58 517.49 507.71 516.60 508.61 C 504.45 522.14 492.39 535.76 480.21 549.27 C 476.69 552.57 474.15 557.14 469.91 559.53 C 437.01 569.57 404.07 579.49 371.15 589.49 C 371.82 570.30 373.22 551.16 373.82 531.97 C 374.41 523.55 374.93 515.10 374.69 506.66 C 370.48 510.49 367.46 515.37 363.63 519.55 C 338.90 549.44 313.84 579.06 289.09 608.93 C 287.90 609.86 286.28 610.03 284.90 610.55 C 267.12 615.66 249.42 621.03 231.58 625.91 C 233.35 600.27 235.01 574.61 237.02 548.98 C 237.84 536.84 238.22 524.67 239.45 512.56 C 243.80 512.64 248.15 512.61 252.50 512.60 C 250.82 544.37 247.97 576.06 246.32 607.83 C 256.85 604.87 267.36 601.81 277.86 598.72 C 281.52 597.86 283.16 594.08 285.51 591.54 C 310.41 562.06 334.96 532.28 359.80 502.75 C 362.44 499.80 364.63 496.38 367.70 493.84 C 374.86 493.59 382.03 493.81 389.20 493.85 C 388.01 519.66 386.65 545.45 385.41 571.25 C 410.53 563.40 435.75 555.89 460.90 548.15 C 464.74 547.38 466.63 543.63 469.14 541.03 C 483.32 525.43 497.20 509.54 511.36 493.92 C 514.50 493.23 517.79 493.72 520.99 493.62 C 551.53 493.78 582.07 493.58 612.60 493.70 C 619.90 485.92 627.15 478.08 634.64 470.49 C 663.41 470.68 692.18 470.59 720.95 470.51 C 726.01 470.79 731.59 468.83 734.21 464.24 C 737.24 459.24 740.86 454.63 743.90 449.64 Z"/>
    <path d="M 817.42 494.42 C 854.71 494.40 891.99 493.73 929.28 493.81 C 930.17 498.10 930.26 502.57 929.27 506.85 C 894.80 506.68 860.31 506.87 825.85 506.27 C 821.88 504.96 817.64 505.80 813.57 505.15 C 814.59 504.98 816.63 504.65 817.65 504.48 C 817.49 501.12 817.53 497.77 817.42 494.42 Z"/>
  </g>
</svg>
